<svg width="66" height="65" viewBox="0 0 66 65" fill="none" xmlns="http://www.w3.org/2000/svg">
<path d="M0.5 8C0.5 3.58172 4.08172 0 8.5 0H57.5C61.9183 0 65.5 3.58172 65.5 8V57C65.5 61.4183 61.9183 65 57.5 65H8.5C4.08172 65 0.5 61.4183 0.5 57V8Z" fill="#29B6F6"/>
<path d="M41.6087 31.3C41.6087 24.025 35.5635 18.1 28.1409 18.1C20.6417 18.1 14.673 24.025 14.673 31.3C14.673 38.65 20.6417 44.5 28.1409 44.5C29.2122 44.5 30.36 44.425 31.3548 44.125L26.9165 38.425C23.3965 37.9 20.7948 34.9 20.7948 31.3C20.7948 27.325 24.0852 24.1 28.1409 24.1C32.1965 24.1 35.487 27.325 35.487 31.3C35.487 31.45 35.487 31.525 35.4104 31.6L40.0017 37.45C40.9965 35.65 41.6087 33.55 41.6087 31.3ZM44.6696 39.7C44.7461 39.7 44.8226 39.7 44.8991 39.775L51.4035 37.3V33.1H45.1287C44.8991 35.5 44.1339 37.75 42.9861 39.7H44.6696ZM45.1287 29.5H51.4035V25.375L42.2974 21.925C43.8278 24.175 44.8226 26.725 45.1287 29.5ZM53.4696 40.3L49.1078 42.025C49.7965 42.85 50.1791 43.975 50.1791 45.1C50.1791 48.1 47.6539 50.5 44.6696 50.5H39.16C37.4 50.5 35.793 49.75 34.7983 48.4L34.033 47.5C32.0435 47.875 30.1304 48.1 28.1409 48.1C18.6522 48.1 11 40.6 11 31.3C11 22.075 18.6522 14.5 28.1409 14.5C31.3548 14.5 34.5687 15.1 37.553 16.3L53.4696 22.375C54.3878 22.675 55 23.575 55 24.55V38.125C55 39.1 54.3878 40 53.4696 40.3ZM17.7339 30.1C18.3461 30.1 18.9583 30.7 18.9583 31.3C18.9583 31.975 18.3461 32.5 17.7339 32.5C17.0452 32.5 16.5096 31.975 16.5096 31.3C16.5096 30.7 17.0452 30.1 17.7339 30.1ZM18.9583 24.1C18.9583 23.5 19.4939 22.9 20.1826 22.9C20.7948 22.9 21.407 23.5 21.407 24.1C21.407 24.775 20.7948 25.3 20.1826 25.3C19.4939 25.3 18.9583 24.775 18.9583 24.1ZM20.1826 37.3C20.7948 37.3 21.407 37.9 21.407 38.5C21.407 39.175 20.7948 39.7 20.1826 39.7C19.4939 39.7 18.9583 39.175 18.9583 38.5C18.9583 37.9 19.4939 37.3 20.1826 37.3ZM31.8139 31.3C31.8139 30.025 31.0487 28.9 29.9774 28.225C28.8296 27.55 27.3757 27.55 26.3043 28.225C25.1565 28.9 24.4678 30.025 24.4678 31.3C24.4678 32.65 25.1565 33.775 26.3043 34.45C27.3757 35.125 28.8296 35.125 29.9774 34.45C31.0487 33.775 31.8139 32.65 31.8139 31.3ZM37.7061 46.225C38.0122 46.675 38.5478 46.9 39.16 46.9H44.6696C45.6643 46.9 46.5061 46.15 46.5061 45.1C46.5061 44.125 45.6643 43.3 44.6696 43.3H40.0017L33.9565 35.65C33.2678 36.625 32.273 37.375 31.1252 37.9L37.7061 46.225Z" fill="black" fill-opacity="0.87"/>
</svg>
