<svg width="66" height="65" viewBox="0 0 66 65" fill="none" xmlns="http://www.w3.org/2000/svg">
<path d="M0.5 8C0.5 3.58172 4.08172 0 8.5 0H57.5C61.9183 0 65.5 3.58172 65.5 8V57C65.5 61.4183 61.9183 65 57.5 65H8.5C4.08172 65 0.5 61.4183 0.5 57V8Z" fill="#9FA8DA"/>
<path d="M19.0505 13.918H26.0808L31.1313 25.5238L25.0707 31.049L22.5656 22.4835L20.0606 31.049L14 25.7965" fill="black" fill-opacity="0.87"/>
<path d="M34.8687 31.049H52V13.918" fill="black" fill-opacity="0.87"/>
<path d="M34.4342 20.6754H41.1917V13.918" fill="black" fill-opacity="0.87"/>
<path d="M27.4343 51.0818L31.1313 51.0818C31.1313 41.6275 23.4646 33.9609 14 33.9609L14 37.375C21.3737 37.6275 27.3232 43.6577 27.4242 51.0818L27.4343 51.0818Z" fill="black" fill-opacity="0.87"/>
<path d="M21.2949 51.0815L25.0525 51.0815C24.9515 44.9705 20.0727 40.011 14.0121 39.7686L14.0121 43.5261C17.9919 43.7685 21.1939 47.0512 21.2949 51.0815Z" fill="black" fill-opacity="0.87"/>
<path d="M17.8088 51.082C17.7078 48.9709 16.0815 47.2538 14.0108 47.0215L14.0108 51.082L17.8088 51.082Z" fill="black" fill-opacity="0.87"/>
<path d="M42.3129 33.5264V43.2029C42.3129 47.5463 38.7877 51.0816 34.4342 51.0816V41.405C34.4342 37.0617 37.9594 33.5264 42.3129 33.5264Z" fill="black" fill-opacity="0.87"/>
<path d="M51.9499 33.5264V43.2029C51.9499 47.5463 48.4247 51.0816 44.0711 51.0816V41.405C44.0711 37.0617 47.5964 33.5264 51.9499 33.5264Z" fill="black" fill-opacity="0.87"/>
</svg>
