<svg width="35" height="33" viewBox="0 0 35 33" fill="none" xmlns="http://www.w3.org/2000/svg">
<path d="M3.91425 13.7065C6.59451 13.7065 8.83576 13.1421 9.8062 11.6908C9.87552 11.59 9.92173 11.4691 9.99105 11.3683C10.199 10.9652 10.3145 10.4815 10.3145 9.95739C10.3145 7.25644 7.74979 6.12769 4.42258 6.0269C2.22754 8.22394 0.887407 10.7838 0.425293 13.7065H3.91425Z" fill="#DE265D"/>
<path d="M27.714 2.7211L25.6114 7.21596C23.8784 6.57096 22.0762 6.24846 20.2277 6.24846C19.6963 6.24846 19.1649 6.26861 18.6566 6.32908C17.7323 3.84986 15.5142 2.11641 12.5567 1.1086C14.8672 0.362814 17.432 0 20.2046 0C22.4459 0 24.5947 0.262032 26.6511 0.786096C27.5754 1.02797 28.0837 1.93501 27.714 2.7211Z" fill="#DE265D"/>
<path d="M10.3839 22.5348C10.3839 21.9502 10.2453 21.4262 10.0142 20.9827C9.96803 20.9223 9.94492 20.8618 9.89871 20.8013C8.95138 19.3501 6.68702 18.7655 4.00676 18.7655H0.448486C0.933706 21.6479 2.25073 24.2279 4.39956 26.4652C7.77299 26.4048 10.3839 25.2559 10.3839 22.5348Z" fill="#DE265D"/>
<path d="M34.0201 13.9079H23.3222C22.3979 13.9079 21.6586 14.5529 21.6586 15.3592V19.3904H27.4119V24.4497C24.8471 25.5986 22.4441 26.1831 20.2491 26.1831C19.7177 26.1831 19.1631 26.1428 18.6548 26.1025C17.7537 28.6623 15.4662 30.4159 12.4163 31.4237C14.6575 32.1292 17.0836 32.492 19.7177 32.492C25.3555 32.492 30.7391 30.7586 34.5746 28.3398V14.3917C34.5746 14.1296 34.3205 13.9079 34.0201 13.9079Z" fill="#DE265D"/>
</svg>
