<svg width="153" height="31" viewBox="0 0 153 31" fill="none" xmlns="http://www.w3.org/2000/svg">
<path d="M97.0886 11.2264H89.8566L88.632 13.8668H84.9813L91.7743 0.241162H95.425L102.103 13.887H98.3364L97.0886 11.2264ZM95.9565 8.74713L93.5073 3.44602L91.035 8.74713H95.9565Z" fill="#333333"/>
<path d="M115.852 13.8668L111.346 8.28353L109.105 10.4403V13.8668H105.57V0.241162H109.105V6.5904L115.574 0.241162H119.687L113.795 5.90509L120.08 13.8668H115.852Z" fill="#333333"/>
<path d="M147.897 11.2266H140.665L139.44 13.8671H135.789L142.583 0.221289H146.233L152.911 13.8671H149.145L147.897 11.2266ZM146.765 8.74741L144.315 3.4463L141.843 8.74741H146.765Z" fill="#333333"/>
<path d="M127.427 4.77648V13.867H130.962V4.05086L127.427 4.77648Z" fill="#333333"/>
<path d="M122.667 0.240601V2.84077H135.745V0.240601H122.667Z" fill="#333333"/>
<path d="M23.1723 5.05796L19.9375 0.240601H16.3792L20.8617 7.29531L23.1723 5.05796Z" fill="#333333"/>
<path d="M27.7017 0.240601L22.0408 9.12954V13.8663H25.576V9.21016L31.26 0.240601H27.7017Z" fill="#333333"/>
<path d="M75.7157 3.99021L72.1805 4.73599V13.8668H75.7157V8.70679H82.786V6.14694H75.7157V3.99021Z" fill="#333333"/>
<path d="M72.1805 0.241187V2.78088H83.4099L83.433 0.241187H72.1805Z" fill="#333333"/>
<path d="M10.1895 6.65087C11.8762 6.2679 12.8929 5.11899 12.8929 3.64758C12.8929 1.55132 10.744 0.241162 7.30128 0.241162H0.115414V2.74055H7.13954C8.47967 2.72039 9.28837 3.26461 9.28837 4.21196C9.28837 5.1593 8.47967 5.72368 7.13954 5.72368H3.65059V3.94992L0.115414 4.69571V13.887H7.55544C11.183 13.887 13.4474 12.4357 13.4474 10.0976C13.4705 8.30369 12.2228 6.97337 10.1895 6.65087ZM7.13954 11.3674H3.65059V8.14244H7.13954C8.80315 8.12228 9.8198 8.72697 9.8198 9.71463C9.8198 10.7628 8.80315 11.3674 7.13954 11.3674Z" fill="#333333"/>
<path d="M60.8603 8.40518H63.4943V10.6425C62.4777 11.1061 61.3686 11.4085 60.4444 11.4085C57.6717 11.4085 55.4998 9.51378 55.4998 7.03455C55.4998 4.55533 57.6486 2.70095 60.4213 2.70095C61.9462 2.70095 63.5405 3.28548 64.7189 4.23283L66.706 2.03579C65.1117 0.786096 62.7549 0 60.4213 0C55.546 0 51.8953 3.02345 51.8953 7.0144C51.8953 11.0053 55.4998 14.0691 60.2364 14.0691C62.4084 14.0691 64.9269 13.3233 66.5905 12.2752V6.02674H60.9065V8.40518H60.8603Z" fill="#333333"/>
<path d="M42.2128 8.40518H44.8468V10.6425C43.8302 11.1061 42.7211 11.4085 41.7969 11.4085C39.0242 11.4085 36.8523 9.51378 36.8523 7.03455C36.8523 4.55533 39.0011 2.70095 41.7738 2.70095C43.2988 2.70095 44.8931 3.28548 46.0714 4.23283L48.0585 2.03579C46.4642 0.786096 44.1075 0 41.7738 0C36.8985 0 33.2478 3.02345 33.2478 7.0144C33.2478 11.0053 36.8523 14.0691 41.5889 14.0691C43.7609 14.0691 46.2794 13.3233 47.943 12.2752V6.02674H42.259V8.40518H42.2128Z" fill="#333333"/>
<path d="M26.5493 30.1529L23.9383 26.7062C23.6611 26.7264 23.3838 26.7465 23.0834 26.7465H19.7562V30.1529H18.5547V19.6112H23.0603C26.0641 19.6112 27.797 20.881 27.797 23.1184C27.797 24.872 26.8034 26.0612 25.0012 26.5248L27.9125 30.1529H26.5493ZM23.1065 25.7992C25.394 25.7992 26.711 24.872 26.711 23.1385C26.711 21.4051 25.394 20.5384 23.1065 20.5384H19.7793V25.7992H23.1065Z" fill="#333333"/>
<path d="M47.1592 24.8511C47.1592 27.8342 44.3634 30.2328 40.8514 30.2328C37.3393 30.2328 34.5435 27.8342 34.5435 24.8511C34.5435 21.868 37.3393 19.5097 40.8514 19.5097C44.3634 19.5097 47.1592 21.8881 47.1592 24.8511ZM35.7681 24.8511C35.7681 27.3102 38.0787 29.3056 40.8745 29.3056C43.6703 29.3056 45.9577 27.3102 45.9577 24.8511C45.9577 22.392 43.6472 20.457 40.8745 20.457C38.0787 20.457 35.7681 22.4122 35.7681 24.8511Z" fill="#333333"/>
<path d="M58.8508 29.3056C61.2307 29.3056 62.6632 28.0357 62.6632 25.8588V19.5902H63.8647V25.8588C63.8647 28.6001 61.9931 30.2328 58.8739 30.2328C55.7546 30.2328 53.8599 28.6001 53.8599 25.8588V19.5902H55.0614V25.8588C55.0383 28.0357 56.4709 29.3056 58.8508 29.3056Z" fill="#333333"/>
<path d="M81.2397 23.0982C81.2397 25.396 79.5299 26.7264 76.5262 26.7264H73.2682V30.1529H72.0668V19.6112H76.5262C79.5299 19.6112 81.2397 20.881 81.2397 23.0982ZM80.1075 23.1385C80.1075 21.4252 78.7905 20.5384 76.5031 20.5384H73.2914V25.7992H76.5031C78.7905 25.7992 80.1075 24.872 80.1075 23.1385Z" fill="#333333"/>
<path d="M7.53245 25.9194H9.68129V28.3583C8.73395 28.9428 7.55556 29.3056 6.37717 29.3056C3.53517 29.3056 1.22461 27.3303 1.22461 24.8511C1.22461 22.3719 3.51206 20.4369 6.35406 20.4369C7.74041 20.4369 9.08054 20.8803 10.0741 21.6866L10.7673 20.9408C9.61197 20.0539 8.01767 19.5097 6.35406 19.5097C2.81889 19.5097 0 21.868 0 24.8511C0 27.8342 2.79579 30.2328 6.28475 30.2328C7.90215 30.2328 9.54265 29.6886 10.721 28.842V24.972H7.53245V25.9194Z" fill="#333333"/>
</svg>
