<svg width="66" height="65" viewBox="0 0 66 65" fill="none" xmlns="http://www.w3.org/2000/svg">
<path d="M0.5 8C0.5 3.58172 4.08172 0 8.5 0H57.5C61.9183 0 65.5 3.58172 65.5 8V57C65.5 61.4183 61.9183 65 57.5 65H8.5C4.08172 65 0.5 61.4183 0.5 57V8Z" fill="#F48FB1"/>
<path d="M42.4821 18.3571H34.9286V24.7857H46.1786L43.6875 19.1607C43.4464 18.6786 42.9643 18.3571 42.4821 18.3571ZM47.1429 28.6429H18.8571V45.3571C18.8571 46.0804 19.4196 46.6429 20.1429 46.6429H45.8571C46.5 46.6429 47.1429 46.0804 47.1429 45.3571V28.6429ZM19.7411 24.7857H31.0714V18.3571H23.4375C22.9554 18.3571 22.4732 18.6786 22.3125 19.1607L19.7411 24.7857ZM42.4821 14.5C44.4911 14.5 46.3393 15.7054 47.1429 17.5536L50.5179 25.1071C50.8393 25.75 51 26.4732 51 27.1964V45.3571C51 48.25 48.6696 50.5 45.8571 50.5H20.1429C17.25 50.5 15 48.25 15 45.3571V27.1964C15 26.4732 15.0804 25.75 15.4018 25.1071L18.7768 17.5536C19.5804 15.7054 21.4286 14.5 23.4375 14.5H42.4821Z" fill="black" fill-opacity="0.87"/>
</svg>
