<svg width="289" height="62" viewBox="0 0 289 62" fill="none" xmlns="http://www.w3.org/2000/svg">
<path d="M17.3015 2.92383H1V19.2254H17.3015V2.92383Z" fill="#DE265D"/>
<path d="M33.6031 2.92383H17.3015V19.2254H33.6031V2.92383Z" fill="#DE265D"/>
<path d="M33.6031 2.92383H49.9046V11.7989C49.9046 15.8881 46.5857 19.2254 42.4782 19.2254H33.6031V2.92383Z" fill="#DE265D"/>
<path d="M17.3015 19.2254H1V35.5269H17.3015V19.2254Z" fill="#DE265D"/>
<path d="M33.6031 19.2254H17.3015V35.5269H33.6031V19.2254Z" fill="#DE265D"/>
<path d="M33.6031 19.2254H43.45C47.0074 19.2254 49.9046 22.1226 49.9046 25.68V29.0723C49.9046 32.6297 47.0074 35.5269 43.45 35.5269H33.6031V19.2254Z" fill="#DE265D"/>
<path d="M1 35.5269H17.3015V51.8285H12.3322C6.07934 51.8285 1 46.7491 1 40.4962V35.5269Z" fill="#DE265D"/>
<path d="M17.3015 35.5269H33.6031V43.4485C33.6031 48.0694 29.844 51.8285 25.2231 51.8285H17.3015V35.5269Z" fill="#DE265D"/>
<path d="M33.6031 35.5269H41.9281C46.3289 35.5269 49.9046 39.1026 49.9046 43.5035V51.8285H33.6031V35.5269Z" fill="#DE265D"/>
<path d="M17.3015 2.92383H1V19.2254M17.3015 2.92383V19.2254M17.3015 2.92383H33.6031M17.3015 19.2254H1M17.3015 19.2254H33.6031M17.3015 19.2254V35.5269M1 19.2254V35.5269M33.6031 2.92383V19.2254M33.6031 2.92383H49.9046V11.7989C49.9046 15.8881 46.5857 19.2254 42.4782 19.2254H33.6031M33.6031 19.2254V35.5269M33.6031 19.2254H43.45C47.0074 19.2254 49.9046 22.1226 49.9046 25.68V29.0723C49.9046 32.6297 47.0074 35.5269 43.45 35.5269H33.6031M17.3015 35.5269H1M17.3015 35.5269H33.6031M17.3015 35.5269V51.8285M1 35.5269V40.4962C1 46.7491 6.07934 51.8285 12.3322 51.8285H17.3015M33.6031 35.5269V43.4485C33.6031 48.0694 29.844 51.8285 25.2231 51.8285H17.3015M33.6031 35.5269H41.9281C46.3289 35.5269 49.9046 39.1026 49.9046 43.5035V51.8285H33.6031V35.5269Z" stroke="white" stroke-width="1.8337" stroke-miterlimit="10"/>
<path d="M70.7812 57.5398V42.0015H76.337C81.4981 42.0015 84.8731 45.1917 84.8731 49.7655C84.8731 54.3599 81.4981 57.5398 76.337 57.5398H70.7812ZM74.1251 54.649H76.337C79.3797 54.649 81.3112 52.8422 81.3112 49.7655C81.3112 46.6991 79.3797 44.8923 76.337 44.8923H74.1251V54.649Z" fill="#0F0A30"/>
<path d="M92.2674 57.8702C88.4147 57.8702 85.9639 55.351 85.9639 52.0265C85.9639 48.7021 88.3835 46.1519 91.9558 46.1519C95.6631 46.1519 98.0828 48.6504 97.7608 52.8835H89.2143C89.4428 54.3496 90.7201 55.3304 92.4855 55.3304C93.7731 55.3304 94.9778 54.8451 95.9435 53.7198L97.6778 55.5678C96.2343 57.1888 94.3858 57.8702 92.2674 57.8702ZM89.1209 50.674H94.6974C94.5001 49.208 93.3993 48.4027 91.9247 48.4027C90.4501 48.4027 89.3182 49.208 89.1209 50.674Z" fill="#0F0A30"/>
<path d="M103.712 57.8702C101.541 57.8702 99.5993 56.9513 98.6128 55.382L100.617 53.6681C101.344 54.8451 102.382 55.4543 103.587 55.4543C104.47 55.4543 105.145 55.0619 105.145 54.4012C105.145 53.7817 104.667 53.472 103.452 53.1726L102.403 52.9145C100.555 52.4499 99.1424 51.4174 99.1424 49.4867C99.1424 47.4115 101.147 46.1416 103.587 46.1416C105.446 46.1416 107.139 46.8643 108.115 48.3614L106.079 49.9823C105.529 48.9395 104.594 48.5678 103.67 48.5678C102.881 48.5678 102.237 48.9189 102.237 49.528C102.237 50.1165 102.756 50.4056 103.722 50.6534L104.833 50.9115C106.869 51.4071 108.291 52.264 108.291 54.3496C108.291 56.497 106.287 57.8702 103.712 57.8702Z" fill="#0F0A30"/>
<path d="M111.677 44.7581C110.545 44.7581 109.704 44.0044 109.704 42.8791C109.704 41.7537 110.545 41 111.677 41C112.788 41 113.64 41.7537 113.64 42.8791C113.64 44.0044 112.788 44.7581 111.677 44.7581ZM110.057 57.5398V46.5236H113.287V57.5398H110.057Z" fill="#0F0A30"/>
<path d="M120.182 57.4469C117.327 57.4469 115.073 55.0723 115.073 51.8201C115.073 48.5678 117.327 46.1932 120.182 46.1932C122.436 46.1932 123.589 47.8555 124.118 49.6209V46.5236H127.348L127.358 55.5162C127.358 60.0074 124.606 62 121.024 62C118.531 62 116.413 61.2257 115.135 59.9558L116.818 57.7773C118.054 58.8923 119.248 59.3982 120.691 59.3982C122.488 59.3982 124.118 58.4071 124.118 55.5988V54.0192C123.589 55.795 122.436 57.4469 120.182 57.4469ZM121.377 54.8038C123.038 54.8038 124.336 53.6578 124.336 51.8201C124.336 49.9926 123.038 48.8363 121.377 48.8363C119.736 48.8363 118.438 49.9926 118.438 51.8201C118.438 53.6578 119.736 54.8038 121.377 54.8038Z" fill="#0F0A30"/>
<path d="M129.84 57.5398V46.5133H133.07V49.3835C133.641 47.4115 134.919 46.1829 136.892 46.1829C139.187 46.1829 140.609 47.8864 140.609 50.736V57.5398H137.38V51.5723C137.38 49.8378 136.642 48.9292 135.23 48.9292C133.807 48.9292 133.07 49.8378 133.07 51.5723V57.5398H129.84Z" fill="#0F0A30"/>
<path d="M151.722 57.8702C149.551 57.8702 147.609 56.9513 146.623 55.382L148.627 53.6681C149.354 54.8451 150.392 55.4543 151.597 55.4543C152.48 55.4543 153.155 55.0619 153.155 54.4012C153.155 53.7817 152.677 53.472 151.462 53.1726L150.413 52.9145C148.565 52.4499 147.152 51.4174 147.152 49.4867C147.152 47.4115 149.157 46.1416 151.597 46.1416C153.456 46.1416 155.149 46.8643 156.125 48.3614L154.089 49.9823C153.539 48.9395 152.604 48.5678 151.68 48.5678C150.891 48.5678 150.247 48.9189 150.247 49.528C150.247 50.1165 150.766 50.4056 151.732 50.6534L152.843 50.9115C154.879 51.4071 156.301 52.264 156.301 54.3496C156.301 56.497 154.297 57.8702 151.722 57.8702Z" fill="#0F0A30"/>
<path d="M158.586 61.6077L161.027 56.6519L156.478 46.5236H159.812L162.761 53.1519L166.022 46.5236H169.303L161.951 61.6077H158.586Z" fill="#0F0A30"/>
<path d="M174.132 57.8702C171.962 57.8702 170.02 56.9513 169.034 55.382L171.038 53.6681C171.765 54.8451 172.803 55.4543 174.008 55.4543C174.891 55.4543 175.566 55.0619 175.566 54.4012C175.566 53.7817 175.088 53.472 173.873 53.1726L172.824 52.9145C170.976 52.4499 169.563 51.4174 169.563 49.4867C169.563 47.4115 171.567 46.1416 174.008 46.1416C175.867 46.1416 177.559 46.8643 178.536 48.3614L176.5 49.9823C175.95 48.9395 175.015 48.5678 174.091 48.5678C173.302 48.5678 172.658 48.9189 172.658 49.528C172.658 50.1165 173.177 50.4056 174.143 50.6534L175.254 50.9115C177.289 51.4071 178.712 52.264 178.712 54.3496C178.712 56.497 176.708 57.8702 174.132 57.8702Z" fill="#0F0A30"/>
<path d="M185.899 57.7153C183.375 57.7153 181.537 56.7242 181.537 53.6268V49.2699H179.211V46.5236H181.537V42.9617H184.767V46.5236H188.162V49.2699H184.767V53.1106C184.767 54.5767 185.535 54.9794 186.75 54.9794C187.28 54.9794 187.757 54.9277 188.131 54.8555V57.4676C187.363 57.6224 186.615 57.7153 185.899 57.7153Z" fill="#0F0A30"/>
<path d="M195.391 57.8702C191.538 57.8702 189.087 55.351 189.087 52.0265C189.087 48.7021 191.507 46.1519 195.079 46.1519C198.786 46.1519 201.206 48.6504 200.884 52.8835H192.337C192.566 54.3496 193.843 55.3304 195.609 55.3304C196.896 55.3304 198.101 54.8451 199.067 53.7198L200.801 55.5678C199.357 57.1888 197.509 57.8702 195.391 57.8702ZM192.244 50.674H197.821C197.623 49.208 196.522 48.4027 195.048 48.4027C193.573 48.4027 192.441 49.208 192.244 50.674Z" fill="#0F0A30"/>
<path d="M202.743 57.5398V46.5133H205.973V49.3835C206.544 47.4115 207.749 46.1829 209.722 46.1829C211.664 46.1829 212.941 47.4218 213.273 49.5487C213.844 47.3909 215.184 46.1829 217.126 46.1829C219.41 46.1829 220.781 47.8864 220.781 50.736V57.5398H217.552V51.5723C217.552 49.8378 216.877 48.9292 215.464 48.9292C214.052 48.9292 213.377 49.8378 213.377 51.5723V57.5398H210.147V51.5723C210.147 49.8378 209.472 48.9292 208.06 48.9292C206.648 48.9292 205.973 49.8378 205.973 51.5723V57.5398H202.743Z" fill="#0F0A30"/>
<path d="M70.3359 30.7617V1.36719H88.9688V5.15625H74.5742V13.9648H87.7578V17.7539H74.5742V26.9727H89.0078V30.7617H70.3359Z" fill="#DE265D"/>
<path d="M90.3953 30.7617L98.7156 20.1562L90.825 9.92188H95.7273L101.177 16.9922L106.743 9.92188H111.313L103.442 19.9414L111.782 30.7617H106.88L100.981 23.1055L94.9656 30.7617H90.3953Z" fill="#DE265D"/>
<path d="M125.552 31.3281C122.173 31.3281 119.595 29.8242 118.306 27.9883V38.457H114.205V9.92188H118.306V12.6953C119.595 10.8594 122.173 9.35547 125.552 9.35547C131.802 9.35547 136.216 14.0234 136.216 20.332C136.216 26.6602 131.802 31.3281 125.552 31.3281ZM124.947 27.6758C128.795 27.6758 131.88 24.8633 131.88 20.332C131.88 15.8203 128.795 13.0078 124.947 13.0078C121.08 13.0078 118.013 15.8203 118.013 20.332C118.013 24.8633 121.08 27.6758 124.947 27.6758Z" fill="#DE265D"/>
<path d="M149.811 31.3281C142.858 31.3281 138.405 26.6406 138.405 20.3711C138.405 14.082 142.995 9.33594 149.284 9.33594C155.631 9.33594 160.358 13.7109 159.791 21.4648H142.643C142.955 25.1367 145.807 27.6758 149.85 27.6758C152.799 27.6758 155.123 26.5234 156.959 23.9453L160.084 26.1523C157.526 29.7656 153.834 31.3281 149.811 31.3281ZM142.799 18.1445H155.534C155.104 14.5898 152.604 12.6562 149.205 12.6562C145.807 12.6562 143.248 14.5898 142.799 18.1445Z" fill="#DE265D"/>
<path d="M163.816 30.7617V9.92188H167.917V13.3789C169.265 10.5859 172.253 9.49219 174.792 9.49219C175.144 9.49219 175.476 9.51172 175.808 9.55078V13.8867C175.261 13.7891 174.734 13.75 174.206 13.75C170.808 13.75 167.917 15.7227 167.917 20.2148V30.7617H163.816Z" fill="#DE265D"/>
<path d="M187.977 31.0352C183.855 31.0352 180.711 29.6094 180.711 24.0625V13.5156H175.984V9.92188H180.711V3.24219H184.812V9.92188H191.492V13.5156H184.812V23.7109C184.812 26.7383 186.531 27.4219 188.719 27.4219C189.715 27.4219 190.574 27.3438 191.336 27.2461V30.7617C190.184 30.9375 189.051 31.0352 187.977 31.0352Z" fill="#DE265D"/>
<path d="M202.528 31.3281C197.548 31.3281 194.579 27.9688 194.579 22.4023V9.92188H198.68V21.4648C198.68 25.5273 200.555 27.7148 203.895 27.7148C207.235 27.7148 209.091 25.5273 209.091 21.4648V9.92188H213.192V30.7617H209.091V28.3008C207.762 30.1953 205.653 31.3281 202.528 31.3281Z" fill="#DE265D"/>
<path d="M218.642 30.7617V9.92188H222.744V12.3828C224.052 10.4883 226.181 9.35547 229.306 9.35547C234.287 9.35547 237.236 12.7148 237.236 18.2812V30.7617H233.134V19.2188C233.134 15.1562 231.279 12.9688 227.939 12.9688C224.599 12.9688 222.744 15.1562 222.744 19.2188V30.7617H218.642Z" fill="#DE265D"/>
<path d="M244.463 5.42969C242.862 5.42969 241.69 4.33594 241.69 2.71484C241.69 1.07422 242.862 0 244.463 0C246.045 0 247.237 1.07422 247.237 2.71484C247.237 4.33594 246.045 5.42969 244.463 5.42969ZM242.413 30.7617V9.92188H246.514V30.7617H242.413Z" fill="#DE265D"/>
<path d="M261.3 31.0352C257.179 31.0352 254.034 29.6094 254.034 24.0625V13.5156H249.308V9.92188H254.034V3.24219H258.136V9.92188H264.816V13.5156H258.136V23.7109C258.136 26.7383 259.855 27.4219 262.042 27.4219C263.038 27.4219 263.898 27.3438 264.659 27.2461V30.7617C263.507 30.9375 262.374 31.0352 261.3 31.0352Z" fill="#DE265D"/>
<path d="M269.426 38.457L274.23 29.0039L265.5 9.92188H269.855L276.516 24.4727L283.898 9.92188H288.234L273.742 38.457H269.426Z" fill="#DE265D"/>
</svg>
